HIERARCHY
ROOT joint_Root
{
	OFFSET 0.0 0.0 0.0
	CHANNELS 6 Xposition Yposition Zposition Zrotation Xrotation Yrotation 
	JOINT Hips
	{
		OFFSET -17.1583 93.1646 452.98
		CHANNELS 6 Xposition Yposition Zposition Zrotation Xrotation Yrotation 
		JOINT Spine
		{
			OFFSET 15.7357 0.0 0.0
			CHANNELS 6 Xposition Yposition Zposition Zrotation Xrotation Yrotation 
			JOINT Chest
			{
				OFFSET 8.98455 -0.406207 0.0
				CHANNELS 6 Xposition Yposition Zposition Zrotation Xrotation Yrotation 
				JOINT Neck
				{
					OFFSET 16.3773 0.0 0.0
					CHANNELS 6 Xposition Yposition Zposition Zrotation Xrotation Yrotation 
					JOINT Head
					{
						OFFSET 6.45672 0.0 0.0
						CHANNELS 6 Xposition Yposition Zposition Zrotation Xrotation Yrotation 
						End Site
						{
							OFFSET 0.0 0.0 0.0
						}
					}
				}
				JOINT Shoulder_L
				{
					OFFSET 12.9942 -0.242716 4.98039
					CHANNELS 6 Xposition Yposition Zposition Zrotation Xrotation Yrotation 
					JOINT UpperArm_L
					{
						OFFSET 5.34809 0.0 0.0
						CHANNELS 6 Xposition Yposition Zposition Zrotation Xrotation Yrotation 
						JOINT LowerArm_L
						{
							OFFSET 24.3286 1.87007e-05 0.0
							CHANNELS 6 Xposition Yposition Zposition Zrotation Xrotation Yrotation 
							JOINT Hand_L
							{
								OFFSET 22.2916 0.0 0.0
								CHANNELS 6 Xposition Yposition Zposition Zrotation Xrotation Yrotation 
								End Site
								{
									OFFSET 0.0 0.0 0.0
								}
							}
						}
					}
				}
				JOINT Shoulder_R
				{
					OFFSET 12.9945 -0.242716 -4.98039
					CHANNELS 6 Xposition Yposition Zposition Zrotation Xrotation Yrotation 
					JOINT UpperArm_R
					{
						OFFSET -5.34813 0.0 0.0
						CHANNELS 6 Xposition Yposition Zposition Zrotation Xrotation Yrotation 
						JOINT LowerArm_R
						{
							OFFSET -24.3289 0.000322201 0.0
							CHANNELS 6 Xposition Yposition Zposition Zrotation Xrotation Yrotation 
							JOINT Hand_R
							{
								OFFSET -22.2915 -0.000108084 0.0
								CHANNELS 6 Xposition Yposition Zposition Zrotation Xrotation Yrotation 
								End Site
								{
									OFFSET 0.0 0.0 0.0
								}
							}
						}
					}
				}
			}
		}
		JOINT UpperLeg_L
		{
			OFFSET -2.19248 -6.46944 0.0
			CHANNELS 6 Xposition Yposition Zposition Zrotation Xrotation Yrotation 
			JOINT LowerLeg_L
			{
				OFFSET 39.0811 0.0 -1.23785e-05
				CHANNELS 6 Xposition Yposition Zposition Zrotation Xrotation Yrotation 
				JOINT Foot_L
				{
					OFFSET 40.9854 0.0 -1.26872e-05
					CHANNELS 6 Xposition Yposition Zposition Zrotation Xrotation Yrotation 
					JOINT Toes_L
					{
						OFFSET 11.7543 0.0 0.0
						CHANNELS 6 Xposition Yposition Zposition Zrotation Xrotation Yrotation 
						End Site
						{
							OFFSET 0.0 0.0 0.0
						}
					}
				}
			}
		}
		JOINT UpperLeg_R
		{
			OFFSET -2.19251 6.46944 0.0
			CHANNELS 6 Xposition Yposition Zposition Zrotation Xrotation Yrotation 
			JOINT LowerLeg_R
			{
				OFFSET -39.0811 -0.00228153 -0.0401928
				CHANNELS 6 Xposition Yposition Zposition Zrotation Xrotation Yrotation 
				JOINT Foot_R
				{
					OFFSET -40.9854 0.0 0.0
					CHANNELS 6 Xposition Yposition Zposition Zrotation Xrotation Yrotation 
					JOINT Toes_R
					{
						OFFSET -11.7543 0.0 0.0
						CHANNELS 6 Xposition Yposition Zposition Zrotation Xrotation Yrotation 
						End Site
						{
							OFFSET 0.0 0.0 0.0
						}
					}
				}
			}
		}
	}
}
MOTION
Frames:	7
Frame Time:	0.0333333
0.000000 0.000000 0.000000 0.000000 0.000000 -0.000000 95.755400 91.137500 167.030000 128.456000 -83.480500 46.052700 15.735700 0.000005 -0.000001 77.894500 84.649100 -78.426100 8.984550 -0.406207 -0.000000 2.689620 -2.218790 -1.010100 16.377300 -0.000001 -0.000001 6.724880 2.413590 -3.358480 6.456720 -0.000001 -0.000000 -4.952900 2.308850 -1.205640 12.994200 -0.242716 4.980390 -93.685400 9.582630 -68.847600 5.348090 -0.000007 -0.000001 -68.754900 -5.028750 -4.320390 24.328600 0.000019 0.000005 9.051880 14.008800 -33.349200 22.291600 -0.000001 0.000005 48.244100 4.587250 15.133100 12.994500 -0.242716 -4.980390 88.547800 3.830030 -69.217400 -5.348130 -0.000001 -0.000004 -74.150600 4.616750 0.048759 -24.328900 0.000322 -0.000009 -0.867557 -6.618420 -7.476030 -22.291500 -0.000108 -0.000004 31.436100 5.452570 -4.732550 -2.192480 -6.469440 -0.000000 175.694000 -2.656200 -3.534520 39.081100 -0.000007 -0.000012 0.264612 -0.492664 28.240900 40.985400 -0.000006 -0.000013 4.421330 10.344900 -70.672400 11.754300 -0.000000 0.000003 -0.002259 0.199548 -8.480640 -2.192510 6.469440 -0.000001 178.914000 -3.819420 165.074000 -39.081100 -0.002282 -0.040193 -0.115768 0.045729 68.962100 -40.985400 0.000008 0.000006 0.270650 -11.209300 -51.345300 -11.754300 -0.000006 -0.000006 -0.000322 0.172924 -9.559310
0.000000 0.000000 0.000000 0.000000 0.000000 -0.000000 93.383300 91.739400 167.324000 115.252000 -85.059100 32.300400 15.735700 0.000005 -0.000001 72.683500 84.538900 -72.559600 8.984550 -0.406207 -0.000000 2.668470 -3.253620 0.323523 16.377300 -0.000001 -0.000001 6.282970 2.863020 -3.255410 6.456720 -0.000001 -0.000000 -4.889300 3.403710 -0.624748 12.994200 -0.242716 4.980390 -93.383400 8.973710 -69.242600 5.348090 -0.000007 -0.000001 -69.775100 -4.850800 -5.655360 24.328600 0.000019 0.000005 11.458900 14.694900 -38.626500 22.291600 -0.000001 0.000005 48.422300 4.580780 15.243800 12.994500 -0.242716 -4.980390 88.745100 3.311500 -69.232900 -5.348130 -0.000001 -0.000004 -73.511100 3.660410 1.600490 -24.328900 0.000322 -0.000009 -0.672335 -5.696160 -6.732490 -22.291500 -0.000108 -0.000004 32.011000 5.456070 -4.858180 -2.192480 -6.469440 -0.000000 178.051000 -4.483610 -0.616465 39.081100 -0.000007 -0.000012 0.222174 -0.480332 24.822900 40.985400 -0.000006 -0.000013 4.745710 11.851900 -70.924300 11.754300 -0.000000 0.000003 -0.001944 0.195647 -8.639290 -2.192510 6.469440 -0.000001 -178.133000 -3.584050 161.073000 -39.081100 -0.002282 -0.040193 -0.152618 0.072678 64.989500 -40.985400 0.000008 0.000006 1.482540 -16.469700 -56.904000 -11.754300 -0.000006 -0.000006 -0.001071 0.184084 -9.105890
0.000000 0.000000 0.000000 0.000000 0.000000 -0.000000 91.222300 92.089300 167.668000 99.394300 -85.652700 15.522600 15.735700 0.000005 -0.000001 68.152000 84.521500 -67.591100 8.984550 -0.406207 -0.000000 2.430010 -4.100460 1.207910 16.377300 -0.000001 -0.000001 5.925380 3.044910 -2.960510 6.456720 -0.000001 -0.000000 -5.019470 4.112980 0.188018 12.994200 -0.242716 4.980390 -93.224800 8.820500 -69.824600 5.348090 -0.000007 -0.000001 -70.158500 -5.051210 -6.766350 24.328600 0.000019 0.000005 14.433000 14.832500 -45.152300 22.291600 -0.000001 0.000005 49.000600 4.559220 15.609900 12.994500 -0.242716 -4.980390 88.834100 3.049820 -69.067900 -5.348130 -0.000001 -0.000004 -72.459000 2.275790 3.179120 -24.328900 0.000322 -0.000009 -0.560733 -5.343880 -5.987840 -22.291500 -0.000108 -0.000004 32.299800 5.456520 -4.874430 -2.192480 -6.469440 -0.000000 179.958000 -6.776600 1.528040 39.081100 -0.000007 -0.000012 0.194352 -0.481902 21.964600 40.985400 -0.000006 -0.000013 5.264420 14.262700 -71.435800 11.754300 -0.000000 0.000003 -0.001739 0.193027 -8.745830 -2.192510 6.469440 -0.000001 -176.197000 -3.534440 157.982000 -39.081100 -0.002282 -0.040193 -0.145375 0.093560 57.803100 -40.985400 0.000008 0.000006 2.233880 -19.447700 -60.669600 -11.754300 -0.000006 -0.000006 -0.001486 0.189755 -8.875360
0.000000 0.000000 0.000000 0.000000 0.000000 -0.000000 89.085600 92.193700 168.096000 89.272900 -85.824300 4.563820 15.735700 0.000005 -0.000001 65.397100 84.496300 -64.674000 8.984550 -0.406207 -0.000000 2.278670 -4.613950 1.537200 16.377300 -0.000001 -0.000001 5.465420 3.040440 -2.426620 6.456720 -0.000001 -0.000000 -5.123710 4.496820 1.030530 12.994200 -0.242716 4.980390 -93.189200 8.950440 -70.295500 5.348090 -0.000007 -0.000001 -70.125400 -5.331340 -8.179260 24.328600 0.000019 0.000005 17.832000 14.661100 -51.802500 22.291600 -0.000001 0.000005 49.262200 4.526200 16.164600 12.994500 -0.242716 -4.980390 88.850500 2.984780 -68.926400 -5.348130 -0.000001 -0.000004 -71.304500 0.149829 4.879460 -24.328900 0.000322 -0.000009 -0.449398 -4.733870 -5.416680 -22.291500 -0.000108 -0.000004 33.275900 5.452890 -4.743140 -2.192480 -6.469440 -0.000000 -178.915000 -8.579790 3.475420 39.081100 -0.000007 -0.000012 0.176504 -0.494169 19.655700 40.985400 -0.000006 -0.000013 5.719250 16.087400 -72.162800 11.754300 -0.000000 0.000003 -0.001642 0.191775 -8.796740 -2.192510 6.469440 -0.000001 -175.320000 -3.787790 156.189000 -39.081100 -0.002282 -0.040193 -0.108025 0.099999 48.056400 -40.985400 0.000008 0.000006 1.988740 -21.198100 -61.634400 -11.754300 -0.000006 -0.000006 -0.002014 0.196555 -8.598910
0.000000 0.000000 0.000000 0.000000 0.000000 -0.000000 86.886600 92.023100 168.607000 85.984300 -85.839000 0.552637 15.735700 0.000005 -0.000001 63.614300 84.472800 -62.922300 8.984550 -0.406207 -0.000000 2.174850 -4.943060 1.477030 16.377300 -0.000001 -0.000001 4.972060 3.016760 -1.935990 6.456720 -0.000001 -0.000000 -5.203780 4.578110 1.858600 12.994200 -0.242716 4.980390 -93.128600 8.929660 -70.601300 5.348090 -0.000007 -0.000001 -70.226100 -5.319220 -9.877360 24.328600 0.000019 0.000005 21.345500 14.368000 -57.584100 22.291600 -0.000001 0.000005 49.550100 4.505310 16.512100 12.994500 -0.242716 -4.980390 88.925500 2.797200 -68.976100 -5.348130 -0.000001 -0.000004 -70.374000 -1.921230 6.743130 -24.328900 0.000322 -0.000009 -0.408847 -4.639080 -5.029350 -22.291500 -0.000108 -0.000004 35.027100 5.458520 -4.945590 -2.192480 -6.469440 -0.000000 -178.562000 -9.531920 5.089830 39.081100 -0.000007 -0.000012 0.175210 -0.530216 18.286400 40.985400 -0.000006 -0.000013 6.183930 16.954000 -73.095400 11.754300 -0.000000 0.000003 -0.000681 0.178399 -9.340390 -2.192510 6.469440 -0.000001 -175.331000 -4.063770 155.754000 -39.081100 -0.002282 -0.040193 -0.061027 0.085959 36.803600 -40.985400 0.000008 0.000006 1.929630 -19.374700 -60.769000 -11.754300 -0.000006 -0.000006 -0.002792 0.205896 -8.218910
0.000000 0.000000 0.000000 0.000000 0.000000 -0.000000 84.470000 91.637100 169.171000 88.230100 -85.851200 2.437520 15.735700 0.000005 -0.000001 62.984700 84.393100 -62.450600 8.984550 -0.406207 -0.000000 2.256800 -5.115590 1.168420 16.377300 -0.000001 -0.000001 4.556150 2.925970 -1.562670 6.456720 -0.000001 -0.000000 -5.313580 4.523810 2.458780 12.994200 -0.242716 4.980390 -93.028700 8.763920 -70.850000 5.348090 -0.000007 -0.000001 -70.582000 -5.177060 -11.658500 24.328600 0.000019 0.000005 25.171200 14.369900 -62.160400 22.291600 -0.000001 0.000005 49.883700 4.488070 16.796700 12.994500 -0.242716 -4.980390 89.006400 2.600370 -69.079600 -5.348130 -0.000001 -0.000004 -69.575900 -3.242730 8.458390 -24.328900 0.000322 -0.000009 -0.381832 -4.650560 -4.686200 -22.291500 -0.000108 -0.000004 36.428300 5.462870 -5.106360 -2.192480 -6.469440 -0.000000 -178.643000 -10.012100 7.031920 39.081100 -0.000007 -0.000012 0.178754 -0.572163 17.350100 40.985400 -0.000006 -0.000013 6.645000 17.272700 -74.382000 11.754300 -0.000000 0.000003 -0.000058 0.168597 -9.738550 -2.192510 6.469440 -0.000001 -175.796000 -4.479330 156.680000 -39.081100 -0.002282 -0.040193 -0.027926 0.066668 25.105700 -40.985400 0.000008 0.000006 1.830400 -17.520300 -60.685100 -11.754300 -0.000006 -0.000006 -0.003256 0.211135 -8.005670
0.000000 0.000000 0.000000 0.000000 0.000000 -0.000000 81.781500 91.139300 169.754000 91.471000 -85.803400 5.446460 15.735700 0.000005 -0.000001 62.417500 84.313100 -62.042900 8.984550 -0.406207 -0.000000 2.341780 -5.280070 0.856801 16.377300 -0.000001 -0.000001 4.383330 2.895700 -1.349810 6.456720 -0.000001 -0.000000 -5.501100 4.483700 2.853410 12.994200 -0.242716 4.980390 -92.996600 8.778180 -71.067000 5.348090 -0.000007 -0.000001 -70.712500 -4.953600 -13.122200 24.328600 0.000019 0.000005 28.107600 14.167700 -65.380000 22.291600 -0.000001 0.000005 50.022300 4.476460 16.987400 12.994500 -0.242716 -4.980390 88.959700 2.732630 -69.149300 -5.348130 -0.000001 -0.000004 -68.562800 -3.822650 9.736380 -24.328900 0.000322 -0.000009 -0.335690 -4.472790 -4.283190 -22.291500 -0.000108 -0.000004 37.036100 5.469680 -5.358810 -2.192480 -6.469440 -0.000000 -178.743000 -9.832240 9.191280 39.081100 -0.000007 -0.000012 0.153669 -0.518604 16.505500 40.985400 -0.000006 -0.000013 5.822800 17.526300 -75.138000 11.754300 -0.000000 0.000003 0.000309 0.162245 -9.996510 -2.192510 6.469440 -0.000001 -176.427000 -5.313880 158.142000 -39.081100 -0.002282 -0.040193 -0.011237 0.055709 14.655200 -40.985400 0.000008 0.000006 2.440340 -15.521400 -60.312600 -11.754300 -0.000006 -0.000006 -0.004177 0.220940 -7.606470
